HIERARCHY
ROOT Hips
{
  OFFSET 49.7188 96.4951 26.0484
  CHANNELS 6 Xposition Yposition Zposition Zrotation Xrotation Yrotation
  JOINT spine
  {
    OFFSET 0 8.13249 0.467659
    CHANNELS 3 Zrotation Xrotation Yrotation
    JOINT spine1
    {
      OFFSET 0 10.3498 0
      CHANNELS 3 Zrotation Xrotation Yrotation
      JOINT spine2
      {
        OFFSET 0 9.91699 0
        CHANNELS 3 Zrotation Xrotation Yrotation
        JOINT Neck
        {
          OFFSET 0 25.461 1.2139
          CHANNELS 3 Zrotation Xrotation Yrotation
          JOINT Head
          {
            OFFSET 0 7.69245 0
            CHANNELS 3 Zrotation Xrotation Yrotation
            End Site
            {
              OFFSET 0 18.62 -6.14063
            }
          }
        }
        JOINT RightShoulder
        {
          OFFSET -4.17575 10.7096 -0.581445
          CHANNELS 3 Zrotation Xrotation Yrotation
          JOINT RightArm
          {
            OFFSET 0 14.0466 0
            CHANNELS 3 Zrotation Xrotation Yrotation
            JOINT RightArmRoll
            {
              OFFSET 0 7.09099 0
              CHANNELS 3 Zrotation Xrotation Yrotation
              JOINT RightForeArm
              {
                OFFSET 0 20.6535 0
                CHANNELS 3 Zrotation Xrotation Yrotation
                JOINT RightForeArmRoll
                {
                  OFFSET 0 7.95719 0
                  CHANNELS 3 Zrotation Xrotation Yrotation
                  JOINT RightHand
                  {
                    OFFSET 0 15.9683 0
                    CHANNELS 3 Zrotation Xrotation Yrotation
                    End Site
                    {
                      OFFSET 0 0 0
                    }
                  }
                }
              }
            }
          }
        }
        JOINT LeftShoulder
        {
          OFFSET 4.17575 10.7096 -0.581445
          CHANNELS 3 Zrotation Xrotation Yrotation
          JOINT LeftArm
          {
            OFFSET 0 14.0466 0
            CHANNELS 3 Zrotation Xrotation Yrotation
            JOINT LeftArmRoll
            {
              OFFSET 0 7.09098 0
              CHANNELS 3 Zrotation Xrotation Yrotation
              JOINT LeftForeArm
              {
                OFFSET 0 20.6535 0
                CHANNELS 3 Zrotation Xrotation Yrotation
                JOINT LeftForeArmRoll
                {
                  OFFSET 0 7.95718 0
                  CHANNELS 3 Zrotation Xrotation Yrotation
                  JOINT LeftHand
                  {
                    OFFSET 0 15.9683 0
                    CHANNELS 3 Zrotation Xrotation Yrotation
                    End Site
                    {
                      OFFSET 0 0 0
                    }
                  }
                }
              }
            }
          }
        }
      }
    }
  }
  JOINT RightUpLeg
  {
    OFFSET -7.20834 -1.32182 -1.10884
    CHANNELS 3 Zrotation Xrotation Yrotation
    JOINT RightUpLegRoll
    {
      OFFSET 0 18.7238 0
      CHANNELS 3 Zrotation Xrotation Yrotation
      JOINT RightLeg
      {
        OFFSET 0 -23.1866 0
        CHANNELS 3 Zrotation Xrotation Yrotation
        JOINT RightLegRoll
        {
          OFFSET 0 23.2624 0
          CHANNELS 3 Zrotation Xrotation Yrotation
          JOINT RightFoot
          {
            OFFSET 0 19.3621 0
            CHANNELS 3 Zrotation Xrotation Yrotation
            JOINT RightToeBase
            {
              OFFSET 0 16.1857 0
              CHANNELS 3 Zrotation Xrotation Yrotation
              End Site
              {
                OFFSET 0.00686052 7.83863 -0.903522
              }
            }
          }
        }
      }
    }
  }
  JOINT LeftUpLeg
  {
    OFFSET 7.20834 -1.32182 -1.10884
    CHANNELS 3 Zrotation Xrotation Yrotation
    JOINT LeftUpLegRoll
    {
      OFFSET 0 18.7239 0
      CHANNELS 3 Zrotation Xrotation Yrotation
      JOINT LeftLeg
      {
        OFFSET 0 23.1865 0
        CHANNELS 3 Zrotation Xrotation Yrotation
        JOINT LeftLegRoll
        {
          OFFSET 0 23.4775 0
          CHANNELS 3 Zrotation Xrotation Yrotation
          JOINT LeftFoot
          {
            OFFSET 0 19.147 0
            CHANNELS 3 Zrotation Xrotation Yrotation
            JOINT LeftToeBase
            {
              OFFSET 0 16.1857 0
              CHANNELS 3 Zrotation Xrotation Yrotation
              End Site
              {
                OFFSET -0.0307459 7.83863 -0.903522
              }
            }
          }
        }
      }
    }
  }
}
MOTION
Frames: 12
Frame Time: 0.00208333
49.8521 81.2136 9.57337 -0.0363526 6.71865 0.0148732 0.808574 1.17687 0.10305 1.62214 6.35665 0.0841255 1.62472 8.00136 0.0568566 -4.13572 -8.01167 -5.10709 -1.48123 -3.68053 -5.70767 52.6353 -10.3629 -6.45453 124.295 18.507 -14.2082 -1.25866e-005 3.5977e-006 -7.76347e-006 18.9873 50.7909 -11.1492 -7.10614e-006 3.90483e-006 -3 8.02903 -4.95146 0.697678 -59.8731 -3.68721 2.37454 -118.689 20.6139 15.5979 6.58779e-006 -1.1801e-006 3.94396e-006 -12.6488 32.7458 3.65377 2.81423e-006 5.07482e-006 3.00227 -8.02901 -4.95145 -0.697674 174.124 40.7455 7.25474 180 7.0149e-015 178.7 -176.038 76.5711 175.136 -3.40932e-006 7.5222e-007 3.4409 -110.869 83.8842 116.686 8.93155 38.9536 -3.02572 -173.879 43.0645 -6.17968 -1.07169e-005 -4.64205e-006 -1.42755 8.36593 -77.429 7.73869 7.1469e-008 7.61525e-007 -3.99178 92.7227 84.3199 -98.5393 -8.18988 36.4432 0.238666 
49.864 81.1689 9.59311 -0.0196994 6.69519 0.00391636 0.806404 1.16533 0.0997825 1.61785 6.33353 0.0780759 1.62048 7.97824 0.0508707 -4.20413 -8.00201 -5.11447 -1.38046 -3.64142 -5.70753 52.5288 -10.3676 -6.45805 124.469 18.5487 -14.4867 -1.25866e-005 3.5977e-006 -7.76347e-006 19.0582 51.2388 -11.3055 -7.10614e-006 3.90483e-006 -3 8.02903 -4.95146 0.697678 -59.8071 -3.78431 2.42775 -118.857 20.5162 16.1928 6.58779e-006 -1.1801e-006 3.94396e-006 -12.6823 33.6702 3.73874 2.81423e-006 5.07482e-006 3.00227 -8.02901 -4.95145 -0.697674 174.196 40.6528 7.17761 180 -7.01489e-015 178.697 -175.978 76.5406 175.09 -3.40932e-006 7.5222e-007 3.44802 -111.854 83.8436 117.682 8.93341 38.9026 -3.04394 -174.005 42.9551 -6.04436 -1.07169e-005 -4.64205e-006 -1.4317 8.38814 -77.3867 7.74097 7.1469e-008 7.61524e-007 -4.00468 94.1435 84.3126 -99.9808 -8.19055 36.35 0.244671 
49.8548 81.2091 9.63295 -0.00163401 6.67137 -0.00913835 0.803958 1.15286 0.0963252 1.61301 6.30855 0.0717001 1.61569 7.95327 0.0445677 -4.2761 -7.98803 -5.12064 -1.27606 -3.59858 -5.70624 52.4203 -10.3718 -6.46117 124.635 18.5835 -14.7749 -1.25866e-005 3.5977e-006 -7.76347e-006 19.1314 51.6932 -11.4638 -7.10614e-006 3.90483e-006 -3 8.02903 -4.95146 0.697678 -59.7437 -3.88707 2.48461 -119.014 20.4073 16.7999 6.58779e-006 -1.1801e-006 3.94396e-006 -12.7115 34.6184 3.82242 2.81423e-006 5.07482e-006 3.00226 -8.02901 -4.95145 -0.697674 174.268 40.5519 7.09903 180 7.01489e-015 178.694 -175.926 76.4963 175.051 -3.40932e-006 7.5222e-007 3.4541 -112.777 83.8031 118.615 8.93487 38.8502 -3.06108 -174.13 42.8328 -5.90985 -1.07169e-005 -4.64205e-006 -1.43547 8.38069 -77.3276 7.71706 7.1469e-008 7.61524e-007 -4.01577 95.5609 84.3014 -101.417 -8.19166 36.2537 0.25296 
49.8663 81.1836 9.66 0.0173725 6.64717 -0.0241697 0.801315 1.13961 0.0927743 1.60777 6.28201 0.0651769 1.6105 7.92673 0.0381239 -4.35039 -7.97003 -5.12571 -1.16936 -3.55267 -5.70396 52.3104 -10.3751 -6.46359 124.793 18.6108 -15.0741 -1.25866e-005 3.5977e-006 -7.76347e-006 19.2055 52.1576 -11.624 -7.10614e-006 3.90483e-006 -3 8.02903 -4.95146 0.697678 -59.6821 -3.99364 2.544 -119.16 20.2882 17.416 6.58779e-006 -1.1801e-006 3.94396e-006 -12.7326 35.5883 3.90328 2.81423e-006 5.07482e-006 3.00226 -8.02901 -4.95145 -0.697674 174.338 40.4436 7.01905 180 7.01488e-015 178.692 -175.883 76.438 175.02 -3.40932e-006 7.5222e-007 3.45905 -113.623 83.764 119.469 8.93588 38.797 -3.07675 -174.252 42.6996 -5.77784 -1.07169e-005 -4.64205e-006 -1.43882 8.34461 -77.2518 7.66823 7.1469e-008 7.61524e-007 -4.02468 96.9386 84.2865 -102.811 -8.19322 36.1563 0.263574 
49.8623 81.2473 9.71785 0.0368491 6.62256 -0.0410564 0.798555 1.12574 0.0892262 1.60229 6.25422 0.0586848 1.60508 7.89894 0.0317154 -4.4258 -7.94829 -5.12975 -1.06166 -3.50438 -5.7009 52.1997 -10.3771 -6.46501 124.943 18.6302 -15.3859 -1.25866e-005 3.5977e-006 -7.76347e-006 19.2791 52.635 -11.7863 -7.10614e-006 3.90483e-006 -3 8.02903 -4.95146 0.697678 -59.6218 -4.1022 2.60481 -119.296 20.1605 18.0383 6.58779e-006 -1.1801e-006 3.94396e-006 -12.7419 36.5777 3.97969 2.81423e-006 5.07482e-006 3.00225 -8.02901 -4.95145 -0.697674 174.409 40.3287 6.93772 180 7.01487e-015 178.689 -175.847 76.3653 174.997 -3.40932e-006 7.5222e-007 3.4628 -114.376 83.7273 120.228 8.93637 38.7438 -3.09056 -174.37 42.5572 -5.64999 -1.07169e-005 -4.64205e-006 -1.44169 8.28107 -77.1598 7.5959 7.1469e-008 7.61524e-007 -4.0311 98.2414 84.2687 -104.126 -8.19524 36.0601 0.276556 
49.875 81.2316 9.74687 0.0563248 6.5975 -0.0596773 0.79576 1.11138 0.0857774 1.59673 6.22546 0.0524025 1.59957 7.87018 0.0255183 -4.50109 -7.9231 -5.13289 -0.954289 -3.45437 -5.69722 52.0888 -10.3773 -6.46513 125.086 18.6412 -15.7117 -1.25866e-005 3.5977e-006 -7.76347e-006 19.351 53.1287 -11.951 -7.10614e-006 3.90483e-006 -3 8.02903 -4.95146 0.697678 -59.562 -4.2109 2.66592 -119.423 20.0252 18.6637 6.58779e-006 -1.1801e-006 3.94396e-006 -12.7352 37.5843 4.04992 2.81423e-006 5.07482e-006 3.00225 -8.02901 -4.95145 -0.697674 174.478 40.2079 6.85511 180 7.01487e-015 178.687 -175.819 76.2781 174.981 -3.40932e-006 7.5222e-007 3.46525 -115.022 83.6943 120.877 8.93629 38.6914 -3.10211 -174.483 42.4075 -5.52792 -1.07169e-005 -4.64205e-006 -1.44406 8.19139 -77.0518 7.50162 7.1469e-008 7.61525e-007 -4.03467 99.4352 84.2492 -105.329 -8.19774 35.9672 0.291949 
49.8931 81.2777 9.84212 0.0753287 6.57195 -0.0799112 0.793009 1.09668 0.082524 1.59126 6.19602 0.0465083 1.59415 7.84075 0.0197088 -4.57506 -7.89474 -5.13519 -0.848553 -3.40332 -5.69312 51.9783 -10.3754 -6.46366 125.22 18.6433 -16.0528 -1.25866e-005 3.5977e-006 -7.76347e-006 19.4199 53.6421 -12.1182 -7.10614e-006 3.90483e-006 -3 8.02903 -4.95146 0.697678 -59.5021 -4.31791 2.72621 -119.543 19.8839 19.2895 6.58779e-006 -1.1801e-006 3.94396e-006 -12.7084 38.6059 4.11208 2.81423e-006 5.07482e-006 3.00224 -8.02901 -4.95145 -0.697674 174.547 40.082 6.77126 180 7.01486e-015 178.685 -175.799 76.176 174.973 -3.40932e-006 7.5222e-007 3.46632 -115.546 83.6664 121.402 8.93559 38.6404 -3.11101 -174.588 42.2523 -5.41322 -1.07169e-005 -4.64205e-006 -1.44587 8.07699 -76.928 7.38705 7.14689e-008 7.61525e-007 -4.03508 100.487 84.229 -106.385 -8.20073 35.88 0.309798 
49.9082 81.2795 9.87483 0.0933901 6.54589 -0.101637 0.790385 1.08179 0.0795626 1.58603 6.16621 0.0411807 1.58895 7.81094 0.0144627 -4.64646 -7.8635 -5.13677 -0.74577 -3.3519 -5.68877 51.8689 -10.3709 -6.4603 125.346 18.636 -16.4108 -1.25866e-005 3.5977e-006 -7.76347e-006 19.4847 54.1782 -12.2885 -7.10614e-006 3.90483e-006 -3 8.02903 -4.95146 0.697678 -59.4415 -4.42141 2.78458 -119.656 19.7378 19.9126 6.58779e-006 -1.1801e-006 3.94396e-006 -12.6571 39.6404 4.16417 2.81423e-006 5.07482e-006 3.00224 -8.02901 -4.95145 -0.697674 174.616 39.9517 6.6862 180 7.01486e-015 178.684 -175.787 76.059 174.972 -3.40932e-006 7.5222e-007 3.46592 -115.934 83.6448 121.788 8.93423 38.5916 -3.11688 -174.685 42.0936 -5.30743 -1.07169e-005 -4.64205e-006 -1.44709 7.93938 -76.7888 7.25393 7.14689e-008 7.61526e-007 -4.03196 101.366 84.2098 -107.263 -8.20425 35.8006 0.330151 
49.9665 81.4178 9.90934 0.110038 6.51928 -0.124733 0.787968 1.06687 0.0769894 1.5812 6.13633 0.0365981 1.58416 7.78106 0.00995596 -4.7141 -7.82967 -5.13772 -0.647251 -3.30079 -5.68436 51.761 -10.3634 -6.45475 125.464 18.6188 -16.7869 -1.25866e-005 3.5977e-006 -7.76347e-006 19.5444 54.7405 -12.4624 -7.10614e-006 3.90483e-006 -3 8.02903 -4.95146 0.697678 -59.3794 -4.51955 2.83988 -119.764 19.5884 20.5304 6.58779e-006 -1.1801e-006 3.94396e-006 -12.5765 40.6855 4.20399 2.81423e-006 5.07482e-006 3.00223 -8.02901 -4.95145 -0.697674 174.684 39.8179 6.59997 180 7.01485e-015 178.682 -175.782 75.9266 174.978 -3.40932e-006 7.52221e-007 3.46396 -116.173 83.6307 122.02 8.93215 38.5456 -3.11932 -174.772 41.9331 -5.21208 -1.07169e-005 -4.64205e-006 -1.44767 7.78011 -76.6345 7.10405 7.14689e-008 7.61527e-007 -4.025 102.042 84.1929 -107.931 -8.2083 35.7312 0.353061 
49.9778 81.4129 9.96154 0.124802 6.49208 -0.149078 0.785839 1.05204 0.0749009 1.57694 6.10666 0.0329387 1.57992 7.75139 0.00636448 -4.77673 -7.79353 -5.13813 -0.55431 -3.25065 -5.68006 51.6554 -10.3526 -6.44672 125.573 18.5911 -17.1826 -1.25866e-005 3.5977e-006 -7.76347e-006 19.5981 55.332 -12.6405 -7.10614e-006 3.90483e-006 -3 8.02903 -4.95146 0.697678 -59.3153 -4.61052 2.89101 -119.867 19.437 21.1398 6.58779e-006 -1.1801e-006 3.94396e-006 -12.4618 41.7393 4.22917 2.81423e-006 5.07482e-006 3.00223 -8.02901 -4.95145 -0.697674 174.752 39.6813 6.51262 180 7.01485e-015 178.681 -175.783 75.7787 174.991 -3.40932e-006 7.52221e-007 3.46036 -116.246 83.6253 122.084 8.92931 38.5033 -3.11795 -174.848 41.7728 -5.12866 -1.07169e-005 -4.64205e-006 -1.44757 7.60076 -76.4652 6.93923 7.14688e-008 7.61528e-007 -4.01385 102.483 84.1798 -108.359 -8.21294 35.674 0.378581 
50.0025 81.5557 10.0495 0.13909 6.4658 -0.177469 0.7838 1.03658 0.0729298 1.57286 6.0757 0.0295078 1.57585 7.72044 0.0029988 -4.83952 -7.75263 -5.13659 -0.461552 -3.2013 -5.6743 51.5506 -10.3372 -6.43522 125.67 18.5519 -17.6067 -1.25866e-005 3.5977e-006 -7.76347e-006 19.6514 55.9611 -12.8283 -7.10614e-006 3.90483e-006 -3 8.02903 -4.95146 0.697678 -59.2532 -4.70095 2.94223 -119.957 19.2785 21.7553 6.58779e-006 -1.1801e-006 3.94396e-006 -12.3171 42.8205 4.24353 2.81423e-006 5.07482e-006 3.00222 -8.02901 -4.95145 -0.697674 174.821 39.5435 6.42078 180 7.01485e-015 178.68 -175.784 75.6175 175.005 -3.40932e-006 7.52221e-007 3.45579 -116.188 83.6266 122.013 8.92509 38.4608 -3.11113 -174.916 41.6103 -5.05443 -1.07169e-005 -4.64205e-006 -1.44678 7.39596 -76.2802 6.75434 7.14687e-008 7.61528e-007 -3.99863 102.784 84.1687 -108.641 -8.21845 35.6238 0.408361 
50.0408 81.5772 10.1016 0.154472 6.44157 -0.212094 0.781612 1.01975 0.0706956 1.56848 6.04203 0.0255894 1.5715 7.68676 -0.000849829 -4.90765 -7.70486 -5.13194 -0.36351 -3.15182 -5.66572 51.4451 -10.3165 -6.41988 125.752 18.5009 -18.064 -1.25866e-005 3.5977e-006 -7.76347e-006 19.711 56.6302 -13.0303 -7.10614e-006 3.90483e-006 -3 8.02903 -4.95146 0.697678 -59.1967 -4.79785 2.99798 -120.026 19.1074 22.3903 6.58779e-006 -1.1801e-006 3.94396e-006 -12.1502 43.9458 4.25227 2.81423e-006 5.07482e-006 3.00222 -8.02901 -4.95145 -0.697674 174.893 39.4051 6.32202 180 7.01484e-015 178.678 -175.779 75.4447 175.015 -3.40932e-006 7.5222e-007 3.45082 -116.042 83.6321 121.854 8.91909 38.4146 -3.09815 -174.98 41.4415 -4.98561 -1.07169e-005 -4.64205e-006 -1.44538 7.16196 -76.0785 6.54551 7.14687e-008 7.61529e-007 -3.97984 103.048 84.1572 -108.882 -8.22499 35.5743 0.443535 
